<svg width="33" height="33" viewBox="0 0 33 33" fill="none" xmlns="http://www.w3.org/2000/svg">
<path d="M7.38279 18.5797C7.16548 18.5797 6.98926 18.421 6.98926 18.2253C6.98926 13.6294 11.1408 9.89041 16.2437 9.89041C16.4611 9.89041 16.6373 10.0491 16.6373 10.2448C16.6373 10.4406 16.4611 10.5993 16.2437 10.5993C11.5748 10.5993 7.77633 14.0203 7.77633 18.2253C7.77633 18.421 7.60011 18.5797 7.38279 18.5797Z" fill="#FFEC3D" stroke="#FFEC3D"/>
<path d="M17.4879 4.73018C17.2706 4.73018 17.0943 4.57146 17.0943 4.37574C17.0943 4.07319 16.1465 3.21956 15.8105 3.21956C15.5932 3.21956 15.417 3.06084 15.417 2.86512C15.417 2.6694 15.5932 2.51069 15.8105 2.51069C16.1465 2.51069 17.0943 1.65699 17.0943 1.35444C17.0943 1.15872 17.2706 1 17.4879 1C17.7052 1 17.8814 1.15872 17.8814 1.35444C17.8814 1.65699 18.8293 2.51069 19.1652 2.51069C19.3825 2.51069 19.5587 2.6694 19.5587 2.86512C19.5587 3.06084 19.3825 3.21956 19.1652 3.21956C18.8293 3.21956 17.8814 4.07319 17.8814 4.37574C17.8814 4.57153 17.7052 4.73018 17.4879 4.73018ZM16.7308 2.86512C17.0106 3.05234 17.2801 3.29499 17.4879 3.54706C17.6958 3.29506 17.9652 3.05234 18.2451 2.86512C17.9653 2.67791 17.6958 2.43519 17.4879 2.18318C17.2801 2.43526 17.0106 2.67791 16.7308 2.86512Z" fill="#FFEC3D" stroke="#FFEC3D"/>
<path d="M3.75334 13.3394C3.53603 13.3394 3.3598 13.1807 3.3598 12.985C3.3598 12.4719 1.96314 11.2141 1.39354 11.2141C1.17623 11.2141 1 11.0554 1 10.8596C1 10.6639 1.17623 10.5052 1.39354 10.5052C1.96322 10.5052 3.3598 9.2473 3.3598 8.73429C3.3598 8.53857 3.53603 8.37985 3.75334 8.37985C3.97065 8.37985 4.14688 8.53857 4.14688 8.73429C4.14688 9.24737 5.54346 10.5052 6.11315 10.5052C6.33046 10.5052 6.50668 10.6639 6.50668 10.8596C6.50668 11.0554 6.33046 11.2141 6.11315 11.2141C5.54346 11.2141 4.14688 12.4719 4.14688 12.985C4.14688 13.1807 3.97065 13.3394 3.75334 13.3394ZM2.41358 10.8596C2.91566 11.1604 3.41939 11.6141 3.75334 12.0662C4.0873 11.6141 4.59102 11.1603 5.09302 10.8596C4.59102 10.5589 4.08722 10.1052 3.75334 9.65299C3.41939 10.1052 2.91566 10.5589 2.41358 10.8596Z" fill="#FFEC3D" stroke="#FFEC3D"/>
<path d="M29.7115 15.9733C29.4942 15.9733 29.318 15.8146 29.318 15.6189C29.318 15.5026 29.1332 15.1727 28.7225 14.8027C28.3119 14.4328 27.9454 14.2664 27.8164 14.2664C27.5991 14.2664 27.4229 14.1077 27.4229 13.912C27.4229 13.7163 27.5991 13.5576 27.8164 13.5576C27.9455 13.5576 28.3119 13.3912 28.7226 13.0214C29.1333 12.6515 29.318 12.3214 29.318 12.2052C29.318 12.0095 29.4943 11.8508 29.7116 11.8508C29.9289 11.8508 30.1051 12.0095 30.1051 12.2052C30.1051 12.3215 30.2898 12.6515 30.7005 13.0214C31.1112 13.3913 31.4777 13.5576 31.6067 13.5576C31.824 13.5576 32.0002 13.7163 32.0002 13.912C32.0002 14.1077 31.824 14.2664 31.6067 14.2664C31.4777 14.2664 31.1112 14.4328 30.7005 14.8027C30.2898 15.1726 30.1051 15.5026 30.1051 15.6189C30.105 15.8146 29.9288 15.9733 29.7115 15.9733ZM28.7765 13.912C29.1247 14.1355 29.4634 14.4405 29.7115 14.7541C29.9596 14.4405 30.2983 14.1354 30.6465 13.912C30.2983 13.6886 29.9596 13.3835 29.7115 13.0699C29.4633 13.3836 29.1247 13.6886 28.7765 13.912Z" fill="#FFEC3D" stroke="#FFEC3D"/>
<path d="M22.3307 8.59959C22.1134 8.59959 21.9371 8.44087 21.9371 8.24515C21.9371 7.59745 20.2518 6.07946 19.5327 6.07946C19.3154 6.07946 19.1392 5.92075 19.1392 5.72503C19.1392 5.52931 19.3154 5.37059 19.5327 5.37059C20.2518 5.37059 21.9371 3.8526 21.9371 3.2049C21.9371 3.00918 22.1134 2.85046 22.3307 2.85046C22.548 2.85046 22.7242 3.00918 22.7242 3.2049C22.7242 3.8526 24.4098 5.37059 25.1289 5.37059C25.3463 5.37059 25.5225 5.52931 25.5225 5.72503C25.5225 5.92075 25.3463 6.07946 25.1289 6.07946C24.4098 6.07946 22.7242 7.59745 22.7242 8.24515C22.7242 8.44087 22.5481 8.59959 22.3307 8.59959ZM20.6182 5.72503C21.264 6.08996 21.9256 6.68577 22.3307 7.26747C22.7359 6.68577 23.3975 6.08996 24.0434 5.72503C23.3975 5.3601 22.7359 4.76429 22.3307 4.18258C21.9256 4.76429 21.264 5.3601 20.6182 5.72503Z" fill="#FFEC3D" stroke="#FFEC3D"/>
<path d="M24.4748 29.5725H24.2521L23.1405 26.1737C25.7614 24.3248 27.4488 21.4493 27.4488 18.2253C27.4488 12.6606 22.4221 8.13333 16.2434 8.13333C10.0648 8.13333 5.03809 12.6606 5.03809 18.2253C5.03809 21.4493 6.72541 24.3248 9.34637 26.1737L8.23479 29.5725H8.01212C7.33304 29.5725 6.78059 30.0701 6.78059 30.6817V30.8907C6.78059 31.5024 7.33311 31.9999 8.01212 31.9999H24.4746C25.1537 31.9999 25.7063 31.5024 25.7063 30.8907V30.6817C25.7064 30.0701 25.1539 29.5725 24.4748 29.5725ZM5.82532 18.2253C5.82532 13.0514 10.4989 8.84221 16.2436 8.84221C21.9883 8.84221 26.6618 13.0514 26.6618 18.2253C26.6618 23.3992 21.9883 27.6085 16.2436 27.6085C10.4989 27.6085 5.82532 23.3992 5.82532 18.2253ZM10.0227 26.6151C11.8036 27.6897 13.9436 28.3174 16.2436 28.3174C18.5436 28.3174 20.6835 27.6897 22.4645 26.6151L23.4318 29.5725H9.05547L10.0227 26.6151ZM24.9193 30.8908C24.9193 31.1115 24.72 31.2911 24.4749 31.2911H8.01228C7.76719 31.2911 7.56782 31.1115 7.56782 30.8908V30.6818C7.56782 30.461 7.76719 30.2815 8.01228 30.2815H24.4748C24.7199 30.2815 24.9193 30.461 24.9193 30.6818V30.8908H24.9193Z" fill="#FFEC3D" stroke="#FFEC3D"/>
</svg>
